<?xml version="1.0" encoding="UTF-8"?>
<svg version="1.1" xmlns="http://www.w3.org/2000/svg" width="512" height="512">
<path d="M0 0 C14.35595225 5.45242538 14.35595225 5.45242538 29.125 9.625 C29.84880859 9.79652588 30.57261719 9.96805176 31.31835938 10.14477539 C45.29555067 13.12836815 59.60895396 13.90071698 73.86010742 14.02783203 C75.67812885 14.05115474 77.49599911 14.0924926 79.31323242 14.15087891 C89.79216721 14.83387599 89.79216721 14.83387599 99.45263672 11.64746094 C101.40705607 9.67675843 102.9420764 7.72318818 104.5 5.4375 C107.76047629 3.80726186 109.87801035 3.9701465 113.5 4.4375 C116.52097378 6.41530319 118.96788638 8.87666675 121.5 11.4375 C122.25410156 12.17871094 123.00820313 12.91992188 123.78515625 13.68359375 C125.70737835 15.58547487 127.61070855 17.50298615 129.5 19.4375 C130.45003906 18.61894531 131.40007812 17.80039062 132.37890625 16.95703125 C136.96524225 13.67844105 140.97877104 13.9659782 146.4375 14.125 C153.28714547 14.14942425 153.28714547 14.14942425 159.51171875 11.64453125 C161.40536911 9.66687422 162.95599769 7.69038387 164.5 5.4375 C167.76047629 3.80726186 169.87801035 3.9701465 173.5 4.4375 C176.52097378 6.41530319 178.96788638 8.87666675 181.5 11.4375 C182.25410156 12.17871094 183.00820313 12.91992188 183.78515625 13.68359375 C185.70737835 15.58547487 187.61070855 17.50298615 189.5 19.4375 C190.80904297 18.21740234 190.80904297 18.21740234 192.14453125 16.97265625 C197.61697787 13.0732109 203.72203867 13.7476865 210.1875 13.875 C211.41017578 13.86404297 212.63285156 13.85308594 213.89257812 13.84179688 C222.86005913 13.9156641 222.86005913 13.9156641 225.84277344 16.34790039 C227.63577691 18.60870133 228.06805471 19.59349094 228.0625 22.4375 C228.08441406 23.0975 228.10632813 23.7575 228.12890625 24.4375 C227.08234177 27.76570505 225.50193331 28.71557886 222.5 30.4375 C219.22514593 30.8616405 215.98408453 30.75027484 212.6875 30.6875 C205.83091383 30.66015834 205.83091383 30.66015834 199.65625 33.234375 C198.39352141 34.64742842 197.1732897 36.10033985 196.01171875 37.59765625 C194.5 39.4375 194.5 39.4375 191 40.875 C185.65317922 40.2066474 183.1602466 37.19830282 179.5 33.4375 C178.67242187 32.62152344 177.84484375 31.80554688 176.9921875 30.96484375 C174.80972432 28.80632609 172.64799124 26.63024106 170.5 24.4375 C170.03851563 24.86627441 169.57703125 25.29504883 169.1015625 25.73681641 C163.51002986 30.48160756 159.67207446 31.0936783 152.5 30.8125 C145.7478485 30.70874511 145.7478485 30.70874511 139.66796875 33.2265625 C138.40055474 34.64146651 137.17604999 36.09678171 136.01171875 37.59765625 C134.5 39.4375 134.5 39.4375 131 40.875 C125.65317922 40.2066474 123.1602466 37.19830282 119.5 33.4375 C118.67242187 32.62152344 117.84484375 31.80554688 116.9921875 30.96484375 C114.80972432 28.80632609 112.64799124 26.63024106 110.5 24.4375 C110.04268494 24.86301147 109.58536987 25.28852295 109.11419678 25.72692871 C103.48677193 30.50403138 99.39356596 31.28757491 92.140625 31.09375 C91.15616394 31.09000366 90.17170288 31.08625732 89.15740967 31.08239746 C87.07631857 31.06900103 84.99527595 31.04125993 82.91455078 31 C79.80060498 30.93849945 76.68870822 30.91811661 73.57421875 30.90625 C57.58507372 30.78281118 41.08397918 30.3724115 25.5 26.4375 C24.65937012 26.23165283 23.81874023 26.02580566 22.95263672 25.8137207 C11.69545877 22.90461932 0.82852982 18.72605414 -10.06689453 14.70410156 C-30.38460479 7.11819853 -30.38460479 7.11819853 -51.5 2.4375 C-52.29792969 2.30859375 -53.09585938 2.1796875 -53.91796875 2.046875 C-64.73011271 0.5501119 -76.64428304 -0.40379363 -85.90625 6.13671875 C-91.03342996 10.37330089 -93.77095059 14.44384468 -96.5 20.4375 C-95.28570312 20.40269531 -94.07140625 20.36789063 -92.8203125 20.33203125 C-71.65854136 19.9191902 -50.70655687 21.93156575 -30.5 28.4375 C-29.82356445 28.65245117 -29.14712891 28.86740234 -28.45019531 29.08886719 C-7.84189838 35.80438138 20.51478101 49.09442681 32.63272095 68.22579956 C34.78642476 71.47080515 36.41213829 73.18164192 40.27630615 74.09046936 C43.7916996 74.34468005 47.24902441 74.38043583 50.7734375 74.33984375 C52.05231842 74.35213516 53.33119934 74.36442657 54.64883423 74.37709045 C58.03304549 74.40344176 61.4145089 74.39991212 64.79858398 74.38171387 C68.2577992 74.37052887 71.71667126 74.39888515 75.17578125 74.42382812 C81.95079036 74.46469076 88.72494744 74.46614827 95.5 74.4375 C95.94375977 73.05751831 95.94375977 73.05751831 96.39648438 71.6496582 C97.62094903 68.08543663 99.21148572 64.94057202 101 61.625 C101.6084375 60.48417969 102.216875 59.34335938 102.84375 58.16796875 C104.5 55.4375 104.5 55.4375 106.5 54.4375 C112.78815062 53.85526383 112.78815062 53.85526383 115.53808594 56.10449219 C117.67640142 58.64726754 119.05595082 61.09531254 120.515625 64.078125 C121.30839844 65.68300781 121.30839844 65.68300781 122.1171875 67.3203125 C122.65601563 68.43148437 123.19484375 69.54265625 123.75 70.6875 C124.30429687 71.81414062 124.85859375 72.94078125 125.4296875 74.1015625 C126.79375504 76.87673439 128.15020207 79.6553671 129.5 82.4375 C131.05291756 80.37596136 132.58901246 78.31147246 134.078125 76.203125 C137.88677181 73.42649861 141.67212859 74.0116881 146.25 74.1875 C147.13816406 74.20554687 148.02632813 74.22359375 148.94140625 74.2421875 C151.12870848 74.28922626 153.31379816 74.35492991 155.5 74.4375 C155.7578125 73.58800781 156.015625 72.73851563 156.28125 71.86328125 C157.57097206 68.23800483 159.17397078 65.01011773 161 61.625 C161.6084375 60.48417969 162.216875 59.34335938 162.84375 58.16796875 C164.5 55.4375 164.5 55.4375 166.5 54.4375 C172.78815062 53.85526383 172.78815062 53.85526383 175.53808594 56.10449219 C177.67640142 58.64726754 179.05595082 61.09531254 180.515625 64.078125 C181.30839844 65.68300781 181.30839844 65.68300781 182.1171875 67.3203125 C182.65601563 68.43148437 183.19484375 69.54265625 183.75 70.6875 C184.30429687 71.81414062 184.85859375 72.94078125 185.4296875 74.1015625 C186.79375504 76.87673439 188.15020207 79.6553671 189.5 82.4375 C189.9125 81.86 190.325 81.2825 190.75 80.6875 C195.46603906 74.6240212 195.46603906 74.6240212 199.36914062 73.91992188 C200.45388672 73.91541016 201.53863281 73.91089844 202.65625 73.90625 C203.84347656 73.90109375 205.03070313 73.8959375 206.25390625 73.890625 C208.10822266 73.91382812 208.10822266 73.91382812 210 73.9375 C211.23621094 73.92203125 212.47242188 73.9065625 213.74609375 73.890625 C215.52693359 73.89835937 215.52693359 73.89835937 217.34375 73.90625 C218.42849609 73.91076172 219.51324219 73.91527344 220.63085938 73.91992188 C224.14198205 74.55331024 225.31809963 75.67244715 227.5 78.4375 C228.06640625 80.4375 228.06640625 80.4375 228.0625 82.4375 C228.08441406 83.0975 228.10632813 83.7575 228.12890625 84.4375 C227.08863971 87.74567683 225.47077126 88.71597614 222.5 90.4375 C219.37600339 90.90575412 216.3371845 90.81676882 213.1875 90.6875 C212.35154297 90.66945313 211.51558594 90.65140625 210.65429688 90.6328125 C208.60236772 90.58591126 206.55103244 90.51417411 204.5 90.4375 C204.22800781 91.31019531 203.95601563 92.18289062 203.67578125 93.08203125 C202.5572141 96.27422122 201.26662559 99.13757771 199.6875 102.125 C199.20667969 103.05699219 198.72585938 103.98898438 198.23046875 104.94921875 C196.26295772 107.7783486 194.60369579 108.98294664 191.5 110.4375 C188.4375 110.4375 188.4375 110.4375 185.5 109.4375 C180.99057089 104.85082157 178.53549429 98.83855325 175.75 93.125 C174.99009766 91.58489258 174.99009766 91.58489258 174.21484375 90.01367188 C172.97106803 87.49091924 171.73300012 84.96553198 170.5 82.4375 C169.943125 83.200625 169.38625 83.96375 168.8125 84.75 C166.04390811 87.96755274 163.87071077 90.16594691 159.50927734 90.66552734 C157.22699531 90.73240188 154.96941981 90.69959755 152.6875 90.625 C151.89923828 90.61146484 151.11097656 90.59792969 150.29882812 90.58398438 C148.36558831 90.54883456 146.43270318 90.49503361 144.5 90.4375 C144.22800781 91.31019531 143.95601563 92.18289062 143.67578125 93.08203125 C142.5572141 96.27422122 141.26662559 99.13757771 139.6875 102.125 C139.20667969 103.05699219 138.72585938 103.98898438 138.23046875 104.94921875 C136.26295772 107.7783486 134.60369579 108.98294664 131.5 110.4375 C128.4375 110.4375 128.4375 110.4375 125.5 109.4375 C120.99057089 104.85082157 118.53549429 98.83855325 115.75 93.125 C114.99009766 91.58489258 114.99009766 91.58489258 114.21484375 90.01367188 C112.97106803 87.49091924 111.73300012 84.96553198 110.5 82.4375 C109.943125 83.200625 109.38625 83.96375 108.8125 84.75 C105.86548716 88.17490681 103.73111279 90.19971854 99.08236694 90.69515991 C96.00219416 90.7853539 92.936664 90.77424806 89.85546875 90.73046875 C88.7305452 90.72622391 87.60562164 90.72197906 86.4466095 90.71760559 C82.85999438 90.7008369 79.27394479 90.66318688 75.6875 90.625 C73.25326333 90.60995087 70.81901784 90.59626287 68.38476562 90.58398438 C62.42298471 90.55093925 56.46153277 90.50075728 50.5 90.4375 C50.78885574 90.97280838 51.07771149 91.50811676 51.37532043 92.05964661 C52.70000203 94.52238279 54.01604921 96.98963621 55.33203125 99.45703125 C56.01368347 100.71972839 56.01368347 100.71972839 56.70910645 102.00793457 C59.3449208 106.96643285 61.48761516 111.77226845 63.1875 117.125 C64.93292176 122.47387312 67.07411942 126.01161942 71.046875 129.984375 C72.5 131.4375 72.5 131.4375 73.5 133.4375 C80.76 133.7675 88.02 134.0975 95.5 134.4375 C96.16 132.4575 96.82 130.4775 97.5 128.4375 C98.61950242 126.14304811 99.78794032 123.87193268 101 121.625 C101.6084375 120.48417969 102.216875 119.34335938 102.84375 118.16796875 C104.5 115.4375 104.5 115.4375 106.5 114.4375 C112.78815062 113.85526383 112.78815062 113.85526383 115.53808594 116.10449219 C117.67640142 118.64726754 119.05595082 121.09531254 120.515625 124.078125 C121.04414063 125.14804688 121.57265625 126.21796875 122.1171875 127.3203125 C122.65601563 128.43148437 123.19484375 129.54265625 123.75 130.6875 C124.30429687 131.81414062 124.85859375 132.94078125 125.4296875 134.1015625 C126.79375504 136.87673439 128.15020207 139.6553671 129.5 142.4375 C131.05291756 140.37596136 132.58901246 138.31147246 134.078125 136.203125 C137.88677181 133.42649861 141.67212859 134.0116881 146.25 134.1875 C147.13816406 134.20554688 148.02632813 134.22359375 148.94140625 134.2421875 C151.12870848 134.28922626 153.31379816 134.35492991 155.5 134.4375 C155.7578125 133.58800781 156.015625 132.73851562 156.28125 131.86328125 C157.57097206 128.23800483 159.17397078 125.01011773 161 121.625 C161.6084375 120.48417969 162.216875 119.34335938 162.84375 118.16796875 C164.5 115.4375 164.5 115.4375 166.5 114.4375 C172.78815062 113.85526383 172.78815062 113.85526383 175.53808594 116.10449219 C177.67640142 118.64726754 179.05595082 121.09531254 180.515625 124.078125 C181.04414063 125.14804688 181.57265625 126.21796875 182.1171875 127.3203125 C182.65601563 128.43148437 183.19484375 129.54265625 183.75 130.6875 C184.30429687 131.81414062 184.85859375 132.94078125 185.4296875 134.1015625 C186.79375504 136.87673439 188.15020207 139.6553671 189.5 142.4375 C189.9125 141.86 190.325 141.2825 190.75 140.6875 C195.46603906 134.6240212 195.46603906 134.6240212 199.36914062 133.91992188 C200.45388672 133.91541016 201.53863281 133.91089844 202.65625 133.90625 C203.84347656 133.90109375 205.03070313 133.8959375 206.25390625 133.890625 C208.10822266 133.91382813 208.10822266 133.91382813 210 133.9375 C211.23621094 133.92203125 212.47242188 133.9065625 213.74609375 133.890625 C215.52693359 133.89835937 215.52693359 133.89835937 217.34375 133.90625 C218.42849609 133.91076172 219.51324219 133.91527344 220.63085938 133.91992188 C224.14198205 134.55331024 225.31809963 135.67244715 227.5 138.4375 C228.06640625 140.4375 228.06640625 140.4375 228.0625 142.4375 C228.08441406 143.0975 228.10632813 143.7575 228.12890625 144.4375 C227.08863971 147.74567683 225.47077126 148.71597614 222.5 150.4375 C219.37600339 150.90575412 216.3371845 150.81676882 213.1875 150.6875 C212.35154297 150.66945312 211.51558594 150.65140625 210.65429688 150.6328125 C208.60236772 150.58591126 206.55103244 150.51417411 204.5 150.4375 C204.22800781 151.31019531 203.95601563 152.18289062 203.67578125 153.08203125 C202.5572141 156.27422122 201.26662559 159.13757771 199.6875 162.125 C198.96626953 163.52298828 198.96626953 163.52298828 198.23046875 164.94921875 C196.26295772 167.7783486 194.60369579 168.98294664 191.5 170.4375 C188.4375 170.4375 188.4375 170.4375 185.5 169.4375 C180.99057089 164.85082157 178.53549429 158.83855325 175.75 153.125 C175.24339844 152.09826172 174.73679687 151.07152344 174.21484375 150.01367188 C172.97106803 147.49091924 171.73300012 144.96553198 170.5 142.4375 C169.943125 143.200625 169.38625 143.96375 168.8125 144.75 C166.04390811 147.96755274 163.87071077 150.16594691 159.50927734 150.66552734 C157.22699531 150.73240188 154.96941981 150.69959755 152.6875 150.625 C151.89923828 150.61146484 151.11097656 150.59792969 150.29882812 150.58398438 C148.36558831 150.54883456 146.43270318 150.49503361 144.5 150.4375 C144.22800781 151.31019531 143.95601563 152.18289062 143.67578125 153.08203125 C142.5572141 156.27422122 141.26662559 159.13757771 139.6875 162.125 C138.96626953 163.52298828 138.96626953 163.52298828 138.23046875 164.94921875 C136.26295772 167.7783486 134.60369579 168.98294664 131.5 170.4375 C128.4375 170.4375 128.4375 170.4375 125.5 169.4375 C120.99057089 164.85082157 118.53549429 158.83855325 115.75 153.125 C115.24339844 152.09826172 114.73679687 151.07152344 114.21484375 150.01367188 C112.97106803 147.49091924 111.73300012 144.96553198 110.5 142.4375 C109.943125 143.200625 109.38625 143.96375 108.8125 144.75 C105.63598681 148.44162343 103.18545764 150.25976824 98.27026367 150.77807617 C96.48712769 150.7545105 96.48712769 150.7545105 94.66796875 150.73046875 C93.37568359 150.72080078 92.08339844 150.71113281 90.75195312 150.70117188 C89.3971293 150.67610985 88.04231159 150.65071506 86.6875 150.625 C85.31316555 150.60994013 83.93881532 150.59625401 82.56445312 150.58398438 C79.20923368 150.54866628 75.85481834 150.49933851 72.5 150.4375 C72.19908447 151.39052002 71.89816895 152.34354004 71.58813477 153.32543945 C69.78460749 158.48351937 66.18704347 161.04084464 61.42578125 163.515625 C55.43877766 165.88033019 49.73385773 165.94539479 43.5 164.4375 C38.4020455 162.22099804 34.52241249 159.15246348 31.5 154.4375 C31.17 153.1175 30.84 151.7975 30.5 150.4375 C19.94 150.4375 9.38 150.4375 -1.5 150.4375 C-2.49 153.4075 -2.49 153.4075 -3.5 156.4375 C-7.50458126 161.5291975 -13.18992098 164.38414818 -19.5 165.4375 C-26.99519725 165.79034095 -32.73246277 164.29365752 -38.5 159.4375 C-41.53016038 156.25194678 -42.41888392 154.76196431 -43.5 150.4375 C-54.06 150.4375 -64.62 150.4375 -75.5 150.4375 C-76.49 153.4075 -76.49 153.4075 -77.5 156.4375 C-81.50458126 161.5291975 -87.18992098 164.38414818 -93.5 165.4375 C-100.9994607 165.79054166 -106.74078086 164.306658 -112.5 159.4375 C-117.83508823 154.37461015 -119.56613876 149.28586773 -119.875 142.0625 C-119.7352419 135.20503587 -117.52689515 130.91481629 -113.25 125.6875 C-106.89897566 120.49120736 -101.68771724 118.72868622 -93.39453125 119.0625 C-85.78336471 120.04856206 -81.6313193 123.85754731 -76.84765625 129.6328125 C-75.5 131.4375 -75.5 131.4375 -74.5 133.4375 C-70.31935528 133.63594229 -66.14123001 133.78071495 -61.95727539 133.87695312 C-60.5358912 133.91707871 -59.11483514 133.97159912 -57.69458008 134.04101562 C-49.59320317 134.79270357 -49.59320317 134.79270357 -42.57226562 131.72436523 C-41.35208792 129.67597552 -40.43544901 127.62614936 -39.5 125.4375 C-37.3671875 123.59765625 -37.3671875 123.59765625 -35.375 122.5 C-34.38113281 121.92958984 -34.38113281 121.92958984 -33.3671875 121.34765625 C-27.51909037 118.49701476 -20.42907832 118.39900624 -14.1796875 120.05078125 C-8.30262547 122.66665004 -3.3752502 127.68699961 -0.5 133.4375 C3.66226504 133.66109275 7.82130216 133.82375784 11.98779297 133.93188477 C13.40247491 133.9769723 14.81674131 134.03826961 16.22998047 134.11645508 C20.75584651 134.36044997 25.04313511 134.42839263 29.5 133.4375 C31.80669212 131.32209845 32.96973864 129.40363114 34.36572266 126.61743164 C35.92547324 123.61979648 37.81004233 122.65896876 40.875 121.375 C41.74898437 120.99214844 42.62296875 120.60929688 43.5234375 120.21484375 C44.17570313 119.95832031 44.82796875 119.70179688 45.5 119.4375 C42.34733665 111.11272534 38.52086743 103.78793417 33.5 96.4375 C33.09910156 96.83582031 32.69820312 97.23414063 32.28515625 97.64453125 C27.01186484 102.55909535 22.04886453 105.22335944 14.76171875 105.56640625 C6.78323453 105.20224307 1.52887369 102.62170055 -3.9375 96.875 C-5.5 94.4375 -5.5 94.4375 -6.5 90.4375 C-17.06 90.4375 -27.62 90.4375 -38.5 90.4375 C-39.16 92.4175 -39.82 94.3975 -40.5 96.4375 C-44.50458126 101.5291975 -50.18992098 104.38414818 -56.5 105.4375 C-63.99519725 105.79034095 -69.73246277 104.29365752 -75.5 99.4375 C-78.53016038 96.25194678 -79.41888392 94.76196431 -80.5 90.4375 C-91.06 90.4375 -101.62 90.4375 -112.5 90.4375 C-113.16 92.4175 -113.82 94.3975 -114.5 96.4375 C-118.50458126 101.5291975 -124.18992098 104.38414818 -130.5 105.4375 C-137.9994607 105.79054166 -143.74078086 104.306658 -149.5 99.4375 C-154.83508823 94.37461015 -156.56613876 89.28586773 -156.875 82.0625 C-156.7352419 75.20503587 -154.52689515 70.91481629 -150.25 65.6875 C-143.89897566 60.49120736 -138.68771724 58.72868622 -130.39453125 59.0625 C-122.78336471 60.04856206 -118.6313193 63.85754731 -113.84765625 69.6328125 C-112.5 71.4375 -112.5 71.4375 -111.5 73.4375 C-107.31935528 73.63594229 -103.14123001 73.78071495 -98.95727539 73.87695312 C-97.5358912 73.91707871 -96.11483514 73.97159912 -94.69458008 74.04101562 C-86.59320317 74.79270357 -86.59320317 74.79270357 -79.57226562 71.72436523 C-78.35208792 69.67597552 -77.43544901 67.62614936 -76.5 65.4375 C-74.3671875 63.59765625 -74.3671875 63.59765625 -72.375 62.5 C-71.71242188 62.11972656 -71.04984375 61.73945312 -70.3671875 61.34765625 C-64.51909037 58.49701476 -57.42907832 58.39900624 -51.1796875 60.05078125 C-45.30262547 62.66665004 -40.3752502 67.68699961 -37.5 73.4375 C-33.33773496 73.66109275 -29.17869784 73.82375784 -25.01220703 73.93188477 C-23.59752509 73.9769723 -22.18325869 74.03826961 -20.77001953 74.11645508 C-12.45297153 74.84230834 -12.45297153 74.84230834 -5.27050781 71.46435547 C-3.76369243 69.17848447 -2.62339947 66.92786283 -1.5 64.4375 C-0.84 63.7775 -0.18 63.1175 0.5 62.4375 C-19.44167215 49.80204394 -40.79938859 40.91368328 -64.5 38.4375 C-65.41910156 38.32792969 -66.33820313 38.21835938 -67.28515625 38.10546875 C-94.41823627 35.30632019 -122.98667684 38.22584743 -148.89453125 46.671875 C-152.4241189 47.70905518 -154.86484569 48.05624967 -158.5 47.4375 C-160.9375 45.9375 -160.9375 45.9375 -162.5 43.4375 C-163.10921535 40.63281045 -163.36557371 38.19013191 -162.5 35.4375 C-158.44623975 31.13953733 -153.58816805 29.93583066 -148.0625 28.4375 C-146.70185425 28.05730713 -146.70185425 28.05730713 -145.3137207 27.66943359 C-135.17193331 24.92850381 -124.86403095 23.10906949 -114.5 21.4375 C-114.31751709 20.7772583 -114.13503418 20.1170166 -113.94702148 19.43676758 C-112.00754602 12.66069804 -109.41599655 7.29574685 -105.5 1.4375 C-104.63375 0.1071875 -104.63375 0.1071875 -103.75 -1.25 C-76.48208746 -29.27535456 -30.9047081 -11.71694734 0 0 Z M-138.9375 77 C-140.81201155 79.45496545 -140.81201155 79.45496545 -140.5625 83 C-139.78833299 86.50486246 -139.78833299 86.50486246 -137.3125 88.5 C-133.62079408 89.73056864 -131.95300514 89.12563585 -128.5 87.4375 C-126.18462405 84.62041805 -126.18462405 84.62041805 -126.6875 81.4375 C-127.6644978 77.73137071 -127.6644978 77.73137071 -130.5 75.4375 C-134.11581862 74.89897382 -135.84111489 75.01513775 -138.9375 77 Z M-64.9375 77 C-66.81201155 79.45496545 -66.81201155 79.45496545 -66.5625 83 C-65.78833299 86.50486246 -65.78833299 86.50486246 -63.3125 88.5 C-59.62079408 89.73056864 -57.95300514 89.12563585 -54.5 87.4375 C-52.18462405 84.62041805 -52.18462405 84.62041805 -52.6875 81.4375 C-53.6644978 77.73137071 -53.6644978 77.73137071 -56.5 75.4375 C-60.11581862 74.89897382 -61.84111489 75.01513775 -64.9375 77 Z M9.0625 77 C7.18798845 79.45496545 7.18798845 79.45496545 7.4375 83 C8.21166701 86.50486246 8.21166701 86.50486246 10.6875 88.5 C14.37920592 89.73056864 16.04699486 89.12563585 19.5 87.4375 C21.81537595 84.62041805 21.81537595 84.62041805 21.3125 81.4375 C20.3355022 77.73137071 20.3355022 77.73137071 17.5 75.4375 C13.88418138 74.89897382 12.15888511 75.01513775 9.0625 77 Z M-101.9375 137 C-103.81201155 139.45496545 -103.81201155 139.45496545 -103.5625 143 C-102.78833299 146.50486246 -102.78833299 146.50486246 -100.3125 148.5 C-96.62079408 149.73056864 -94.95300514 149.12563585 -91.5 147.4375 C-89.18462405 144.62041805 -89.18462405 144.62041805 -89.6875 141.4375 C-90.6644978 137.73137071 -90.6644978 137.73137071 -93.5 135.4375 C-97.11581862 134.89897382 -98.84111489 135.01513775 -101.9375 137 Z M-27.9375 137 C-29.81201155 139.45496545 -29.81201155 139.45496545 -29.5625 143 C-28.78833299 146.50486246 -28.78833299 146.50486246 -26.3125 148.5 C-22.62079408 149.73056864 -20.95300514 149.12563585 -17.5 147.4375 C-15.18462405 144.62041805 -15.18462405 144.62041805 -15.6875 141.4375 C-16.6644978 137.73137071 -16.6644978 137.73137071 -19.5 135.4375 C-23.11581862 134.89897382 -24.84111489 135.01513775 -27.9375 137 Z M46.0625 137 C44.18798845 139.45496545 44.18798845 139.45496545 44.4375 143 C45.21166701 146.50486246 45.21166701 146.50486246 47.6875 148.5 C51.37920592 149.73056864 53.04699486 149.12563585 56.5 147.4375 C58.81537595 144.62041805 58.81537595 144.62041805 58.3125 141.4375 C57.3355022 137.73137071 57.3355022 137.73137071 54.5 135.4375 C50.88418138 134.89897382 49.15888511 135.01513775 46.0625 137 Z " fill="#000000" transform="translate(284.5,40.5625)"/>
<path d="M0 0 C3 1.8125 3 1.8125 5 5 C4.9765625 7.7175293 4.9765625 7.7175293 4.625 10.69921875 C4.51414062 11.69139404 4.40328125 12.68356934 4.2890625 13.70581055 C4.19367188 14.46289307 4.09828125 15.21997559 4 16 C24.81599469 16.49329789 24.81599469 16.49329789 44.3203125 10.3203125 C48.55960269 8.23156602 51.36871149 8.17831978 56 9 C60.14174688 13.24486091 62.83812718 18.68806239 65.75 23.8125 C66.25660156 24.69615234 66.76320313 25.57980469 67.28515625 26.49023438 C68.52723909 28.65802046 69.76538423 30.82795538 71 33 C71.39832031 32.02417969 71.79664063 31.04835937 72.20703125 30.04296875 C72.74179864 28.75765064 73.27697648 27.47250325 73.8125 26.1875 C74.07353516 25.54490234 74.33457031 24.90230469 74.60351562 24.24023438 C77.34521816 17.70753574 77.34521816 17.70753574 80 16 C82.64453125 15.69921875 82.64453125 15.69921875 85.8125 15.6875 C91.29715911 15.41846432 95.27415923 14.24983426 100.25 11.9375 C105.97010296 9.3003924 109.74182679 7.88967895 116 9 C118.25 10.9375 118.25 10.9375 120 14 C120.4434375 14.77085937 120.886875 15.54171875 121.34375 16.3359375 C122.59587108 18.54106184 123.80977788 20.76101659 125 23 C125.66 22.01 126.32 21.02 127 20 C129.23081405 17.23839742 130.32917564 16.12101324 133.86914062 15.48242188 C134.95388672 15.47791016 136.03863281 15.47339844 137.15625 15.46875 C138.34347656 15.46359375 139.53070313 15.4584375 140.75390625 15.453125 C142.60822266 15.47632813 142.60822266 15.47632813 144.5 15.5 C145.73621094 15.48453125 146.97242188 15.4690625 148.24609375 15.453125 C150.02693359 15.46085938 150.02693359 15.46085938 151.84375 15.46875 C152.92849609 15.47326172 154.01324219 15.47777344 155.13085938 15.48242188 C158.64198205 16.11581024 159.81809963 17.23494715 162 20 C162.56640625 22 162.56640625 22 162.5625 24 C162.58441406 24.66 162.60632813 25.32 162.62890625 26 C161.60664334 29.25092304 159.88192588 30.27694379 157 32 C154.23866047 32.28614917 151.91854388 32.38589883 149.1875 32.25 C148.49462891 32.23195312 147.80175781 32.21390625 147.08789062 32.1953125 C145.39132336 32.14851064 143.69547524 32.07677624 142 32 C141.98018066 32.64026123 141.96036133 33.28052246 141.93994141 33.94018555 C141.84436399 36.8563528 141.73481786 39.77183572 141.625 42.6875 C141.5940625 43.69490234 141.563125 44.70230469 141.53125 45.74023438 C141.49257813 46.71669922 141.45390625 47.69316406 141.4140625 48.69921875 C141.3826416 49.59471436 141.3512207 50.49020996 141.31884766 51.4128418 C140.85522873 55.17468694 139.85744691 58.04728121 137.3125 60.875 C133.82837258 62.56998091 131.67147831 62.0489938 128 61 C124.81813002 57.54840086 122.64209586 53.76429127 120.43359375 49.640625 C119.77693759 48.43085663 119.12002928 47.2212251 118.46289062 46.01171875 C117.44342578 44.12184661 116.42704723 42.23043257 115.4152832 40.33642578 C114.42951943 38.49579589 113.43236586 36.66172016 112.43359375 34.828125 C111.84634521 33.7340332 111.25909668 32.63994141 110.65405273 31.51269531 C109.18585388 28.71832243 109.18585388 28.71832243 106 28 C103.94656923 28.76418706 103.94656923 28.76418706 101.8125 29.9375 C97.24979649 32.11413397 94.00759351 32.36418862 89 32 C88.86948242 32.7230835 88.73896484 33.44616699 88.60449219 34.19116211 C87.6106568 38.80912502 85.89562062 43.14291963 84.25 47.5625 C83.91484375 48.50802734 83.5796875 49.45355469 83.234375 50.42773438 C79.9276998 59.2893734 79.9276998 59.2893734 75 62 C71.4375 62.0625 71.4375 62.0625 68 61 C64.8242099 57.54201259 62.64261869 53.76526749 60.43359375 49.640625 C59.77693759 48.43085663 59.12002928 47.2212251 58.46289062 46.01171875 C57.44342578 44.12184661 56.42704723 42.23043257 55.4152832 40.33642578 C54.42951943 38.49579589 53.43236586 36.66172016 52.43359375 34.828125 C51.55272095 33.1869873 51.55272095 33.1869873 50.65405273 31.51269531 C49.18585388 28.71832243 49.18585388 28.71832243 46 28 C44.26943359 28.95132813 44.26943359 28.95132813 42.50390625 29.921875 C34.87942972 33.51240863 26.16476966 32.4153409 17.9375 32.25 C16.19598406 32.22990621 14.45444576 32.21166053 12.71289062 32.1953125 C8.47470223 32.15153994 4.23760079 32.08267248 0 32 C-0.26176025 32.93162964 -0.26176025 32.93162964 -0.52880859 33.88208008 C-2.20440589 39.67635047 -4.16612578 45.18263261 -6.625 50.6875 C-6.91761719 51.37521484 -7.21023438 52.06292969 -7.51171875 52.77148438 C-10.96721606 60.5708356 -15.54269092 67.74563055 -20 75 C-12.88380019 75.20351778 -5.76835532 75.3432188 1.35009766 75.43945312 C3.76932823 75.47958484 6.18836598 75.53410499 8.60693359 75.60351562 C12.09260683 75.70101697 15.57570789 75.74603114 19.0625 75.78125 C20.13677246 75.82254028 21.21104492 75.86383057 22.31787109 75.90637207 C26.76137711 75.90900323 29.79296954 75.88680035 33.44873047 73.20092773 C35.42309208 71.21303094 37.20199092 69.1451523 39 67 C42.26047629 65.36976186 44.37801035 65.5326465 48 66 C51.02097378 67.97780319 53.46788638 70.43916675 56 73 C56.75410156 73.74121094 57.50820313 74.48242188 58.28515625 75.24609375 C60.20737835 77.14797487 62.11070855 79.06548615 64 81 C65.42505859 79.77216797 65.42505859 79.77216797 66.87890625 78.51953125 C71.46524225 75.24094105 75.47877104 75.5284782 80.9375 75.6875 C87.78714547 75.71192425 87.78714547 75.71192425 94.01171875 73.20703125 C95.90536911 71.22937422 97.45599769 69.25288387 99 67 C102.26047629 65.36976186 104.37801035 65.5326465 108 66 C111.02097378 67.97780319 113.46788638 70.43916675 116 73 C116.75410156 73.74121094 117.50820313 74.48242188 118.28515625 75.24609375 C120.20737835 77.14797487 122.11070855 79.06548615 124 81 C125.30904297 79.77990234 125.30904297 79.77990234 126.64453125 78.53515625 C132.11697787 74.6357109 138.22203867 75.3101865 144.6875 75.4375 C145.91017578 75.42654297 147.13285156 75.41558594 148.39257812 75.40429688 C157.36005913 75.4781641 157.36005913 75.4781641 160.34277344 77.91040039 C162.13577691 80.17120133 162.56805471 81.15599094 162.5625 84 C162.58441406 84.66 162.60632813 85.32 162.62890625 86 C161.58234177 89.32820505 160.00193331 90.27807886 157 92 C153.72514593 92.4241405 150.48408453 92.31277484 147.1875 92.25 C140.33091383 92.22265834 140.33091383 92.22265834 134.15625 94.796875 C132.89352141 96.20992842 131.6732897 97.66283985 130.51171875 99.16015625 C129 101 129 101 125.5 102.4375 C120.15317922 101.7691474 117.6602466 98.76080282 114 95 C113.17242187 94.18402344 112.34484375 93.36804688 111.4921875 92.52734375 C109.30972432 90.36882609 107.14799124 88.19274106 105 86 C104.53851563 86.42877441 104.07703125 86.85754883 103.6015625 87.29931641 C98.01002986 92.04410756 94.17207446 92.6561783 87 92.375 C80.2478485 92.27124511 80.2478485 92.27124511 74.16796875 94.7890625 C72.90055474 96.20396651 71.67604999 97.65928171 70.51171875 99.16015625 C69 101 69 101 65.5 102.4375 C60.15317922 101.7691474 57.6602466 98.76080282 54 95 C53.17242187 94.18402344 52.34484375 93.36804688 51.4921875 92.52734375 C49.30972432 90.36882609 47.14799124 88.19274106 45 86 C44.6066748 86.42632721 44.21334961 86.85265442 43.80810547 87.29190063 C37.10160151 93.46496343 29.68947918 92.77027953 21.125 92.5859375 C19.5894538 92.57473028 18.05388597 92.5661973 16.51831055 92.56021118 C12.49989343 92.53743199 8.48280226 92.47860716 4.46490479 92.4119873 C0.35569185 92.35032622 -3.75373785 92.3231457 -7.86328125 92.29296875 C-15.90945893 92.22884962 -23.95456397 92.1266071 -32 92 C-32.30619766 92.78608643 -32.61239532 93.57217285 -32.9278717 94.38208008 C-33.90599617 96.7704617 -34.94696352 98.59526863 -36.43359375 100.6875 C-36.91892578 101.38875 -37.40425781 102.09 -37.90429688 102.8125 C-38.88548426 104.21241067 -39.8719783 105.60862624 -40.86523438 107 C-47.14829017 116.12713682 -51.95957718 126.15405873 -57 136 C-45.6641337 136.05472807 -34.32911323 136.06630877 -22.99317169 136.02334595 C-17.728876 136.00473866 -12.46543294 136.00079536 -7.20117188 136.03076172 C-2.1172947 136.05915515 2.96516084 136.04850988 8.04896545 136.01119995 C9.9849468 136.00377375 11.92103452 136.01023329 13.85691833 136.03103638 C24.32856299 136.48810394 24.32856299 136.48810394 33.94555664 133.1875 C35.90375801 131.22381962 37.43874998 129.28006691 39 127 C42.26047629 125.36976186 44.37801035 125.5326465 48 126 C51.02097378 127.97780319 53.46788638 130.43916675 56 133 C56.75410156 133.74121094 57.50820313 134.48242188 58.28515625 135.24609375 C60.20737835 137.14797487 62.11070855 139.06548615 64 141 C64.95003906 140.18144531 65.90007812 139.36289062 66.87890625 138.51953125 C71.46524225 135.24094105 75.47877104 135.5284782 80.9375 135.6875 C87.78714547 135.71192425 87.78714547 135.71192425 94.01171875 133.20703125 C95.90536911 131.22937422 97.45599769 129.25288387 99 127 C102.26047629 125.36976186 104.37801035 125.5326465 108 126 C111.02097378 127.97780319 113.46788638 130.43916675 116 133 C116.75410156 133.74121094 117.50820313 134.48242188 118.28515625 135.24609375 C120.20737835 137.14797487 122.11070855 139.06548615 124 141 C124.87269531 140.18660156 125.74539063 139.37320313 126.64453125 138.53515625 C132.11697787 134.6357109 138.22203867 135.3101865 144.6875 135.4375 C145.91017578 135.42654297 147.13285156 135.41558594 148.39257812 135.40429688 C157.36005913 135.4781641 157.36005913 135.4781641 160.34277344 137.91040039 C162.13577691 140.17120133 162.56805471 141.15599094 162.5625 144 C162.58441406 144.66 162.60632813 145.32 162.62890625 146 C161.58234177 149.32820505 160.00193331 150.27807886 157 152 C153.72514593 152.4241405 150.48408453 152.31277484 147.1875 152.25 C140.33091383 152.22265834 140.33091383 152.22265834 134.15625 154.796875 C132.89352141 156.20992842 131.6732897 157.66283985 130.51171875 159.16015625 C129 161 129 161 125.5 162.4375 C120.15317922 161.7691474 117.6602466 158.76080282 114 155 C113.17242187 154.18402344 112.34484375 153.36804688 111.4921875 152.52734375 C109.30972432 150.36882609 107.14799124 148.19274106 105 146 C104.53851563 146.42877441 104.07703125 146.85754883 103.6015625 147.29931641 C98.01002986 152.04410756 94.17207446 152.6561783 87 152.375 C80.2478485 152.27124511 80.2478485 152.27124511 74.16796875 154.7890625 C72.90055474 156.20396651 71.67604999 157.65928171 70.51171875 159.16015625 C69 161 69 161 65.5 162.4375 C60.15317922 161.7691474 57.6602466 158.76080282 54 155 C53.17242187 154.18402344 52.34484375 153.36804688 51.4921875 152.52734375 C49.30972432 150.36882609 47.14799124 148.19274106 45 146 C44.53847031 146.42522257 44.07694061 146.85044514 43.60142517 147.28855324 C38.06741939 151.96083829 34.13074462 152.85255078 27.00390625 152.68115234 C25.5537487 152.68246658 25.5537487 152.68246658 24.07429504 152.68380737 C20.90285292 152.67965242 17.7335691 152.63309844 14.5625 152.5859375 C12.35434118 152.57473795 10.14616738 152.56620135 7.93798828 152.56021118 C2.14425021 152.53737295 -3.64857612 152.47849179 -9.44195557 152.4119873 C-15.36091785 152.35045731 -21.28002839 152.32317323 -27.19921875 152.29296875 C-38.79987833 152.22874458 -50.39986316 152.12642498 -62 152 C-62.7192996 157.18788287 -63.13036297 162.19063726 -63.15771484 167.43823242 C-63.16279556 168.13362625 -63.16787628 168.82902008 -63.17311096 169.54548645 C-63.18372353 171.03935217 -63.19237855 172.53323289 -63.19923019 174.02712059 C-63.21113207 176.39416384 -63.23060747 178.76103372 -63.25234985 181.12800598 C-63.31362386 187.8521245 -63.36810313 194.57621654 -63.40136719 201.30053711 C-63.42232118 205.42720446 -63.45761317 209.55353992 -63.50212479 213.68001747 C-63.51626028 215.24722709 -63.52500169 216.81449523 -63.52817917 218.38176537 C-63.53309345 220.57151476 -63.55625767 222.76038154 -63.58349609 224.94995117 C-63.59158295 226.19379074 -63.5996698 227.43763031 -63.60800171 228.71916199 C-64.03703451 232.30996111 -64.75570605 234.18213377 -67 237 C-68.85742188 238.04963684 -68.85742188 238.04963684 -70.96875 238.64379883 C-71.76796875 238.87362457 -72.5671875 239.10345032 -73.390625 239.34024048 C-74.25171875 239.55796112 -75.1128125 239.77568176 -76 240 C-77.32257813 240.33443619 -77.32257813 240.33443619 -78.671875 240.67562866 C-81.60786579 241.38390184 -84.55091271 242.04767926 -87.5 242.69921875 C-89.11358398 243.05908623 -89.11358398 243.05908623 -90.75976562 243.42622375 C-93.02157299 243.92869606 -95.2839546 244.42858976 -97.546875 244.92602539 C-100.99198781 245.68573317 -104.43345176 246.46065383 -107.875 247.23632812 C-110.08312683 247.72489261 -112.29145385 248.21255332 -114.5 248.69921875 C-115.51900391 248.93041916 -116.53800781 249.16161957 -117.58789062 249.39982605 C-132.28952677 252.58661848 -132.28952677 252.58661848 -137.5625 249.5 C-139.72659573 245.73635524 -139.47993784 243.31944059 -139 239 C-136.59744179 235.34655477 -132.70052732 234.94870719 -128.68359375 234.09765625 C-127.95874283 233.93490707 -127.23389191 233.7721579 -126.48707581 233.60447693 C-124.13941289 233.07995153 -121.78867715 232.57101763 -119.4375 232.0625 C-117.83507261 231.70799651 -116.2328585 231.35252757 -114.63085938 230.99609375 C-111.49715355 230.30044827 -108.36225863 229.61065186 -105.22607422 228.92626953 C-101.74168056 228.16496447 -98.26211451 227.38452604 -94.78515625 226.58984375 C-93.94992432 226.39962646 -93.11469238 226.20940918 -92.25415039 226.01342773 C-90.79867976 225.68191525 -89.34342268 225.34946319 -87.88842773 225.01586914 C-85.17727893 224.40984764 -82.79134859 224 -80 224 C-80.00222061 223.18869125 -80.00444122 222.37738251 -80.00672913 221.54148865 C-80.02680869 213.87655829 -80.04201315 206.21164078 -80.05181217 198.54669094 C-80.05701937 194.60655528 -80.06407755 190.66644146 -80.07543945 186.72631836 C-80.08634544 182.92026112 -80.09229312 179.11422482 -80.09487724 175.30815315 C-80.09671763 173.85977919 -80.10031137 172.4114063 -80.10573006 170.96304131 C-80.11304298 168.92642664 -80.11398665 166.88989727 -80.11352539 164.85327148 C-80.115746 163.69633286 -80.11796661 162.53939423 -80.12025452 161.34739685 C-79.99419061 157.83829021 -79.55600421 154.46489263 -79 151 C-80.216875 150.938125 -81.43375 150.87625 -82.6875 150.8125 C-103.19342329 148.49471903 -119.47737407 134.36403491 -132 119 C-134.43426498 115.56372285 -136.66686966 112.02226309 -138.875 108.4375 C-139.47143311 107.48166016 -140.06786621 106.52582031 -140.68237305 105.54101562 C-141.88636255 103.61101771 -143.08750617 101.67924121 -144.28564453 99.74560547 C-145.86216409 97.22074944 -147.46707911 94.7179547 -149.08984375 92.22265625 C-149.55342285 91.50343994 -150.01700195 90.78422363 -150.49462891 90.04321289 C-151.34545249 88.72410533 -152.20275928 87.40914654 -153.06787109 86.09936523 C-155.41520535 82.41738079 -156.73721355 79.37977408 -157 75 C-155.76356597 72.13667909 -154.66847461 70.50711867 -152.1875 68.625 C-149.04769336 67.72791239 -147.11164779 68.02761006 -144 69 C-141.00864116 72.3498598 -138.67608104 75.98950508 -136.35546875 79.82421875 C-135.67806641 80.93603516 -135.00066406 82.04785156 -134.30273438 83.19335938 C-133.59726342 84.35783502 -132.89218692 85.52254972 -132.1875 86.6875 C-120.20064114 106.50102308 -108.20881202 125.57438268 -85 133 C-81.35063141 133.85003586 -77.714232 134.51013082 -74 135 C-73.67 133.845 -73.34 132.69 -73 131.5 C-68.83308298 119.11553498 -61.35306352 102.35306352 -52 93 C-56.95 92.67 -61.9 92.34 -67 92 C-67.66 93.98 -68.32 95.96 -69 98 C-73.00458126 103.0916975 -78.68992098 105.94664818 -85 107 C-92.4994607 107.35304166 -98.24078086 105.869158 -104 101 C-109.33508823 95.93711015 -111.06613876 90.84836773 -111.375 83.625 C-111.2352419 76.76753587 -109.02689515 72.47731629 -104.75 67.25 C-98.39897566 62.05370736 -93.18771724 60.29118622 -84.89453125 60.625 C-77.28336471 61.61106206 -73.1313193 65.42004731 -68.34765625 71.1953125 C-67 73 -67 73 -66 75 C-51.30502857 77.52333034 -51.30502857 77.52333034 -37.73583984 73.34326172 C-33.82132658 68.76003225 -31.45370488 63.38907998 -29.18066406 57.84960938 C-28.00679336 55.01639622 -26.70558207 52.29014856 -25.3359375 49.546875 C-21.28057211 41.4375515 -21.28057211 41.4375515 -18 33 C-21.96 32.67 -25.92 32.34 -30 32 C-30.2784375 33.299375 -30.2784375 33.299375 -30.5625 34.625 C-32.75263955 39.76706677 -36.15540063 42.52145117 -41.07421875 45.078125 C-47.06122234 47.44283019 -52.76614227 47.50789479 -59 46 C-64.0979545 43.78349804 -67.97758751 40.71496348 -71 36 C-71.495 34.02 -71.495 34.02 -72 32 C-82.56 32 -93.12 32 -104 32 C-104.66 33.98 -105.32 35.96 -106 38 C-110.00458126 43.0916975 -115.68992098 45.94664818 -122 47 C-129.4994607 47.35304166 -135.24078086 45.869158 -141 41 C-146.33508823 35.93711015 -148.06613876 30.84836773 -148.375 23.625 C-148.2352419 16.76753587 -146.02689515 12.47731629 -141.75 7.25 C-135.39897566 2.05370736 -130.18771724 0.29118622 -121.89453125 0.625 C-114.28336471 1.61106206 -110.1313193 5.42004731 -105.34765625 11.1953125 C-104 13 -104 13 -103 15 C-98.81935528 15.19844229 -94.64123001 15.34321495 -90.45727539 15.43945312 C-89.0358912 15.47957871 -87.61483514 15.53409912 -86.19458008 15.60351562 C-78.09320317 16.35520357 -78.09320317 16.35520357 -71.07226562 13.28686523 C-69.85208792 11.23847552 -68.93544901 9.18864936 -68 7 C-65.8671875 5.16015625 -65.8671875 5.16015625 -63.875 4.0625 C-63.21242188 3.68222656 -62.54984375 3.30195313 -61.8671875 2.91015625 C-56.01909037 0.05951476 -48.92907832 -0.03849376 -42.6796875 1.61328125 C-36.80262547 4.22915004 -31.8752502 9.24949961 -29 15 C-23.72 15 -18.44 15 -13 15 C-12.566875 13.081875 -12.13375 11.16375 -11.6875 9.1875 C-9.99560301 1.69481335 -8.1310331 -1.12152181 0 0 Z M-130.4375 18.5625 C-132.31201155 21.01746545 -132.31201155 21.01746545 -132.0625 24.5625 C-131.28833299 28.06736246 -131.28833299 28.06736246 -128.8125 30.0625 C-125.12079408 31.29306864 -123.45300514 30.68813585 -120 29 C-117.68462405 26.18291805 -117.68462405 26.18291805 -118.1875 23 C-119.1644978 19.29387071 -119.1644978 19.29387071 -122 17 C-125.61581862 16.46147382 -127.34111489 16.57763775 -130.4375 18.5625 Z M-56.4375 18.5625 C-58.31201155 21.01746545 -58.31201155 21.01746545 -58.0625 24.5625 C-57.28833299 28.06736246 -57.28833299 28.06736246 -54.8125 30.0625 C-51.12079408 31.29306864 -49.45300514 30.68813585 -46 29 C-43.68462405 26.18291805 -43.68462405 26.18291805 -44.1875 23 C-45.1644978 19.29387071 -45.1644978 19.29387071 -48 17 C-51.61581862 16.46147382 -53.34111489 16.57763775 -56.4375 18.5625 Z M-93.4375 78.5625 C-95.31201155 81.01746545 -95.31201155 81.01746545 -95.0625 84.5625 C-94.28833299 88.06736246 -94.28833299 88.06736246 -91.8125 90.0625 C-88.12079408 91.29306864 -86.45300514 90.68813585 -83 89 C-80.68462405 86.18291805 -80.68462405 86.18291805 -81.1875 83 C-82.1644978 79.29387071 -82.1644978 79.29387071 -85 77 C-88.61581862 76.46147382 -90.34111489 76.57763775 -93.4375 78.5625 Z " fill="#000000" transform="translate(350,219)"/>
<path d="M0 0 C2.5 1.5625 2.5 1.5625 4 4 C4.5625 7.4375 4.5625 7.4375 4 11 C0.84287336 14.51601848 -2.6803164 17.44254339 -6.375 20.375 C-16.94967239 28.99873016 -25.08878571 38.56026108 -31 51 C-30.33057373 50.97905273 -29.66114746 50.95810547 -28.97143555 50.93652344 C-25.87694919 50.85230522 -22.78270507 50.80100985 -19.6875 50.75 C-18.1087207 50.69972656 -18.1087207 50.69972656 -16.49804688 50.6484375 C-5.44350131 50.51238155 3.80307403 53.44741718 12 61 C17.54890526 66.63924385 21.62505549 72.89658815 25.625 79.6875 C26.85861216 81.74785277 28.09300352 83.80773917 29.328125 85.8671875 C29.94365234 86.89811523 30.55917969 87.92904297 31.19335938 88.99121094 C33.8762599 93.45932798 36.62236443 97.88712216 39.375 102.3125 C44.26836913 110.19709708 49.13959029 118.09504351 54 126 C58.91052348 133.98296443 63.82281194 141.96480774 68.75 149.9375 C69.52778809 151.19929077 69.52778809 151.19929077 70.32128906 152.48657227 C72.98256677 156.79170332 75.68043152 161.06798375 78.4375 165.3125 C78.9934082 166.17367432 79.54931641 167.03484863 80.12207031 167.92211914 C81.17521113 169.54937017 82.23654549 171.17136008 83.30761719 172.78686523 C85.91412538 176.82284961 87.82425131 180.05706823 88 185 C86.39588152 188.52906067 85.25840638 189.82772908 82 192 C78.5625 191.9375 78.5625 191.9375 75 191 C71.05966501 186.80358454 68.23816472 181.70593506 65.25 176.8125 C64.68708252 175.89686279 64.12416504 174.98122559 63.54418945 174.0378418 C62.32772763 172.05862374 61.11269004 170.07852975 59.89892578 168.09765625 C57.98733134 164.97933403 56.07066442 161.86418833 54.15234375 158.75 C49.41039381 151.05160925 44.67454923 143.34946827 39.93847656 135.64746094 C35.9210402 129.11459411 31.90193988 122.58275757 27.87988281 116.05273438 C26.65731159 114.06740573 25.43527713 112.08174642 24.21386719 110.09570312 C20.99347298 104.86050756 17.75905991 99.63455567 14.50390625 94.42089844 C12.99968232 91.99948862 11.51533901 89.56660038 10.03125 87.1328125 C9.08422263 85.60882202 8.13634833 84.0853574 7.1875 82.5625 C6.77975342 81.88243896 6.37200684 81.20237793 5.9519043 80.50170898 C2.31811817 74.74415899 -2.45265761 70.18244746 -9 68 C-11.20959253 67.84890907 -13.42300047 67.75126199 -15.63671875 67.68359375 C-16.93544922 67.64169922 -18.23417969 67.59980469 -19.57226562 67.55664062 C-20.94400761 67.51683013 -22.31575244 67.47711784 -23.6875 67.4375 C-25.07097645 67.39429165 -26.45444027 67.35067661 -27.83789062 67.30664062 C-31.22513714 67.20042035 -34.61255509 67.09969312 -38 67 C-39.32 73.27 -40.64 79.54 -42 86 C-40.68 85.67 -39.36 85.34 -38 85 C-26.01918323 84.93593146 -11.27070302 85.48097561 -2 94 C-0.26246017 97.40268216 0.25978923 99.04743948 -0.75 102.75 C-2 105 -2 105 -4 107 C-10.23473196 107.68015258 -14.62730717 106.1988332 -20.41796875 103.95703125 C-27.6644034 101.27113641 -35.38629512 101.89695738 -43 102 C-42.97679687 102.63164062 -42.95359375 103.26328125 -42.9296875 103.9140625 C-42.62335796 119.0992555 -44.71356745 133.19648978 -55.29296875 144.74609375 C-58.73167777 148.30677926 -62.32486184 151.68547983 -66 155 C-67.11955078 156.01320312 -67.11955078 156.01320312 -68.26171875 157.046875 C-69.47413145 158.11440819 -70.69512924 159.17229536 -71.92578125 160.21875 C-74.76705192 162.65871126 -77.54183244 165.1679216 -80.3125 167.6875 C-80.82893066 168.1518042 -81.34536133 168.6161084 -81.87744141 169.09448242 C-87.07896593 173.66116056 -87.07896593 173.66116056 -89.4375 179.875 C-88.57286274 186.05098042 -84.54552155 189.67138878 -79.81835938 193.29101562 C-79.19767578 193.75185547 -78.57699219 194.21269531 -77.9375 194.6875 C-76.69529575 195.62716534 -75.45436568 196.56851796 -74.21484375 197.51171875 C-73.66948975 197.91865967 -73.12413574 198.32560059 -72.56225586 198.74487305 C-68.19912563 202.25024147 -68.19912563 202.25024147 -67.47583008 204.97363281 C-67.37371216 206.07723145 -67.37371216 206.07723145 -67.26953125 207.203125 C-67.18896484 208.01910156 -67.10839844 208.83507812 -67.02539062 209.67578125 C-66.95513672 210.52527344 -66.88488281 211.37476563 -66.8125 212.25 C-66.73064453 213.08402344 -66.64878906 213.91804687 -66.56445312 214.77734375 C-66.11980024 219.53774521 -65.91602992 224.22016484 -66 229 C-65.20303711 228.97905273 -64.40607422 228.95810547 -63.58496094 228.93652344 C-59.97343566 228.85336678 -56.36211176 228.80133966 -52.75 228.75 C-51.49574219 228.71648437 -50.24148437 228.68296875 -48.94921875 228.6484375 C-47.74394531 228.63554687 -46.53867187 228.62265625 -45.296875 228.609375 C-44.18666992 228.58842773 -43.07646484 228.56748047 -41.93261719 228.54589844 C-38.31527769 229.10602593 -37.16687461 230.09662061 -35 233 C-34.5 236.5 -34.5 236.5 -35 240 C-37.21863029 242.90717073 -38.51944929 243.83981643 -42 245 C-43.62719482 245.08143855 -45.25751719 245.1075302 -46.88671875 245.09765625 C-47.82451172 245.09443359 -48.76230469 245.09121094 -49.72851562 245.08789062 C-50.70498047 245.07951172 -51.68144531 245.07113281 -52.6875 245.0625 C-53.67556641 245.05798828 -54.66363281 245.05347656 -55.68164062 245.04882812 C-58.12115474 245.03704303 -60.56054689 245.02059011 -63 245 C-58.1938442 273.93254178 -58.1938442 273.93254178 -46.1015625 300.25 C-45 302 -45 302 -45 304 C-41.6041652 305.41340151 -38.23247569 306.58262973 -34.6875 307.5625 C-33.36298828 307.93568359 -33.36298828 307.93568359 -32.01171875 308.31640625 C-23.80348448 310.17949444 -15.69658042 310.19188068 -7.3125 310.1875 C-5.39159546 310.1884668 -5.39159546 310.1884668 -3.43188477 310.18945312 C5.98444738 310.13769241 15.20628153 309.47629557 24.55859375 308.45703125 C39.42422451 306.8517331 39.42422451 306.8517331 42.7421875 309.26953125 C45.47320493 313.02680058 45.12186132 317.19488706 45.11352539 321.69628906 C45.11367142 322.36011597 45.11381744 323.02394287 45.1139679 323.70788574 C45.11327332 325.8938325 45.10550231 328.07969319 45.09765625 330.265625 C45.09579045 331.78448439 45.09436731 333.30334438 45.09336853 334.82220459 C45.0895561 338.81377839 45.0797367 342.80531562 45.06866455 346.796875 C45.05842303 350.8723908 45.05386504 354.94791253 45.04882812 359.0234375 C45.03811327 367.01564175 45.02105216 375.00781632 45 383 C46.09363861 382.72593323 47.18727722 382.45186646 48.3140564 382.16949463 C49.7658452 381.80601592 51.2176378 381.44255236 52.66943359 381.07910156 C53.38824203 380.89892487 54.10705048 380.71874817 54.84764099 380.53311157 C60.09521621 379.21985878 65.34793092 377.94002297 70.625 376.75 C71.36105469 376.57726562 72.09710938 376.40453125 72.85546875 376.2265625 C76.96012827 375.30136196 80.76624238 374.61398092 85 375 C88.32274404 377.45594125 89.77618008 378.9256644 90.625 383 C89.76024098 387.1508433 88.31073143 388.34613692 85 391 C81.70160584 392.26313211 78.33341848 392.96652306 74.87890625 393.67578125 C73.41263039 393.99810982 73.41263039 393.99810982 71.91673279 394.32695007 C69.85513952 394.77655313 67.79159269 395.21727913 65.72631836 395.6496582 C62.57283298 396.31033517 59.42602206 396.99736535 56.27929688 397.68945312 C54.27116855 398.12394801 52.26271463 398.55694139 50.25390625 398.98828125 C49.31623917 399.19133377 48.37857208 399.39438629 47.41249084 399.60359192 C37.74904938 401.61496332 37.74904938 401.61496332 34 401 C30.69605486 398.38275312 29.1650237 396.90480562 28.39872742 392.70329285 C28.415382 390.82798637 28.415382 390.82798637 28.43237305 388.91479492 C28.43127785 387.87494446 28.43127785 387.87494446 28.43016052 386.81408691 C28.43362862 384.53540258 28.47244679 382.25879338 28.51171875 379.98046875 C28.52104979 378.39578874 28.52816453 376.81109427 28.53315735 375.22639465 C28.55220463 371.06511274 28.6012846 366.90471007 28.65667725 362.74377441 C28.70791948 358.49401747 28.73068193 354.24411778 28.75585938 349.99414062 C28.80940667 341.66235792 28.89469058 333.33128848 29 325 C28.4417453 325.05927673 27.8834906 325.11855347 27.30831909 325.17962646 C15.88796347 326.37529268 4.61749425 327.34356607 -6.875 327.25 C-8.11314453 327.24323242 -9.35128906 327.23646484 -10.62695312 327.22949219 C-44.32040315 326.84802343 -44.32040315 326.84802343 -55.3046875 315.88671875 C-55.86414062 315.26410156 -56.42359375 314.64148438 -57 314 C-57.77730469 313.17435547 -57.77730469 313.17435547 -58.5703125 312.33203125 C-79.08971737 287.99881029 -84 240.61153671 -84 210 C-84.55945313 209.74476563 -85.11890625 209.48953125 -85.6953125 209.2265625 C-94.61934714 204.47716102 -102.84391791 196.78101117 -106 187 C-106.3359375 183.73046875 -106.3359375 183.73046875 -106.375 180.1875 C-106.40335937 179.02605469 -106.43171875 177.86460937 -106.4609375 176.66796875 C-105.47556386 168.82673272 -101.34414363 163.73226162 -95.75 158.4375 C-94.87903687 157.59082764 -94.87903687 157.59082764 -93.99047852 156.72705078 C-90.45403254 153.31231334 -86.84169792 149.99964546 -83.1015625 146.80859375 C-80.29807921 144.39593062 -77.5509931 141.92325396 -74.8125 139.4375 C-74.31290771 138.99003418 -73.81331543 138.54256836 -73.29858398 138.08154297 C-62.86340629 128.57922534 -60.64090958 119.74503081 -59 106 C-59.79664063 105.70609375 -60.59328125 105.4121875 -61.4140625 105.109375 C-64 104 -64 104 -65.375 102.25 C-66.27030493 99.02690226 -66.0416793 97.19014285 -65 94 C-64.02160156 93.29230469 -63.04320312 92.58460938 -62.03515625 91.85546875 C-58.66395164 89.15880687 -58.16041011 86.8561448 -57.66137695 82.66918945 C-57.58749756 81.87085693 -57.51361816 81.07252441 -57.4375 80.25 C-55.42699156 64.47395756 -50.76232799 50.86705554 -43 37 C-42.44441406 36.00226563 -41.88882813 35.00453125 -41.31640625 33.9765625 C-34.57630534 22.69457105 -24.99430359 13.41444804 -15 5 C-14.37351562 4.45085937 -13.74703125 3.90171875 -13.1015625 3.3359375 C-8.58070632 -0.32575144 -5.58292235 -0.82370985 0 0 Z " fill="#000000" transform="translate(106,86)"/>
<path d="M0 0 C2.73883355 1.59029045 2.94967699 2.83465297 3.875 5.875 C4.02796552 9.69913795 3.35349332 11.01890846 1 14 C-4.80697078 19.98843861 -14.70752208 22.77634384 -22.8984375 23.203125 C-24.39055671 23.22428981 -25.88276594 23.2397441 -27.375 23.25 C-28.1175 23.270625 -28.86 23.29125 -29.625 23.3125 C-34.49777525 23.34693657 -37.7603801 22.6554434 -42 20 C-44.00227445 17.47539309 -44.00998065 16.23953569 -43.875 13 C-42.82196247 9.38958561 -42.03694039 8.21691881 -39 6 C-36.086862 5.57916267 -33.24342372 5.77081381 -30.3125 5.9375 C-22.83846926 6.15609563 -16.06477972 6.32572886 -9.9375 1.3125 C-6.66987478 -0.90105257 -3.87929784 -0.36945694 0 0 Z " fill="#000000" transform="translate(115,228)"/>
</svg>
